<?xml version="1.0" encoding="utf-8"?>
<!-- Generator: Adobe Illustrator 16.0.3, SVG Export Plug-In . SVG Version: 6.00 Build 0)  -->
<!DOCTYPE svg PUBLIC "-//W3C//DTD SVG 1.1//EN" "http://www.w3.org/Graphics/SVG/1.1/DTD/svg11.dtd">
<svg version="1.1" xmlns="http://www.w3.org/2000/svg" xmlns:xlink="http://www.w3.org/1999/xlink" x="0px" y="0px" width="960px"
	 height="3000px" viewBox="0 0 960 3000" enable-background="new 0 0 960 3000" xml:space="preserve">
<g id="Layer_6">
</g>
<g id="Layer_5">
	<linearGradient id="SVGID_1_" gradientUnits="userSpaceOnUse" x1="348.2246" y1="343.3921" x2="622.205" y2="2574.7832">
		<stop  offset="0" style="stop-color:#54D1FF"/>
		<stop  offset="0.5739" style="stop-color:#54C0FF"/>
		<stop  offset="1" style="stop-color:#54B0FF"/>
	</linearGradient>
	<polyline fill="url(#SVGID_1_)" stroke="#2E3192" stroke-miterlimit="10" points="0.46,549.663 962.5,267.968 962.5,2533 
		0.335,2588.358 	"/>
	<polygon fill="#166FFF" points="245.5,588.5 234.75,461.5 429.5,260 473.125,339.5 471.625,346 461,455 437.5,352 	"/>
	<polygon fill="#3281FF" points="578,583.5 555.625,407 517.5,474 	"/>
	<polygon fill="#3281FF" points="979,928.375 1025,874.375 622.375,579.625 	"/>
	<polygon fill="#3281FF" points="1155,2087.375 1207,1735 197,1463 	"/>
	<polygon fill="#2D7DFF" points="245,588.375 387,471.5 345.625,639.625 	"/>
	<polygon fill="#549AFF" points="472.125,337.375 217,280.5 432,259 	"/>
	<polygon fill="#549AFF" points="1215,1739 197,1463 248.375,1442.375 	"/>
	<polygon fill="#549AFF" points="463.625,2548.5 388.625,2565 990.125,2284.5 	"/>
	<polygon fill="#2188FF" points="577.5,583.5 555,407.625 621,577.625 	"/>
	<polygon fill="#2D72FF" points="979.625,928.375 577.625,583.625 619.625,577 	"/>
	<polygon fill="#438BFF" points="471,345 482.375,251.125 650.884,239.966 	"/>
	<polygon fill="#2D7DFF" points="517.625,474.375 471,339 560.375,409 	"/>
	<polygon fill="#276EFF" points="461,418 471,336 492,397 	"/>
	<polygon fill="#2D7DFF" points="619,577.625 702.5,500.5 1103,932.375 	"/>
	<polygon fill="#3276FF" points="461,455 437,347 384,473 	"/>
	<polygon fill="#3281FF" points="650.875,239.875 663.873,306.137 472,340 	"/>
	<polygon fill="#166FFF" points="-121,943 246.375,589 361,643 	"/>
	<polygon fill="#3281FF" points="472,337.375 218.5,280.5 264,431.5 	"/>
	<polygon fill="#3281FF" points="436.5,349.5 245,589 384,475 	"/>
	<polygon fill="#3281FF" points="1014.125,2128 396.125,2561.5 979.625,2300.5 	"/>
	<polygon fill="#3281FF" points="471.875,343.625 456.125,271.625 483.125,250.625 	"/>
	<line fill="#2176FF" x1="481.625" y1="332.375" x2="544.375" y2="393"/>
	<polygon fill="#2176FF" points="264.5,431.5 220.625,285.375 235,465.375 	"/>
	<polygon fill="#006EEE" points="461,454 385,472 361,642.625 	"/>
	<polygon fill="#1669FF" points="246.375,590.375 -138,745 -81,903.625 	"/>
	<polygon fill="#1669FF" points="1003,1573 247,1442.5 1209,1739 	"/>
	<polygon fill="#166FFF" points="455.625,272.375 472.375,281.625 471.875,337 	"/>
	<polygon fill="#2D83FF" points="702.375,501 619,577.5 555,407.625 	"/>
	<polygon fill="#3281FF" points="702.5,501 663,301 555,409 	"/>
	<polygon fill="#3E82FF" points="663,303 557.625,409.625 471,340 	"/>
	<polygon fill="#0074F9" points="361,643 385,474 343,635 	"/>
	<polygon fill="#3E82FF" points="-45,923 248,1443 197,1463 	"/>
	<polygon fill="#1669FF" points="-481.375,2530 409.125,2559 -344.875,2719 	"/>
	<polygon fill="#3E82FF" points="-322.375,2869.5 470.5,2545 -341.875,2715 	"/>
	<polygon fill="#0063E2" points="245.625,590.375 0,688 -18.375,738.375 	"/>
	<polygon fill="#0063E2" points="-5,893 248,1443 -47,920 	"/>
	<polygon fill="#0063E2" points="-541.375,2701 405.125,2571.5 -536.875,2827 	"/>
</g>
<g id="Layer_4">
	<path fill="#0040AC" stroke="#001FD3" stroke-miterlimit="10" d="M667.351,441.669"/>
	<path fill="#0040AC" stroke="#001FD3" stroke-miterlimit="10" d="M684.075,417.234"/>
</g>
<g id="Layer_1">
	<g>
		<g>
			<path d="M374.515,65.824c-3.443-2.514-0.029-6.313,1.899-9.089c3.242-4.666,6.86-6.48,12.451-7.728
				c13.769-3.075,27.19,4.394,35.891,14.598c9.087,10.658,11.767,25.382,3.826,37.446c-6.025,9.154-18.147,12.813-27.132,18.234
				c-0.739,0.446-0.646,2.428,0.434,2.1c12.641-3.846,26.377-8.517,32.074-21.647c6.735-15.525,0.855-31.813-10.605-43.277
				c-5.957-5.959-13.61-10.042-21.874-11.608c-6.494-1.231-16.04-0.658-21.588,3.438c-2.932,2.165-15.187,17.548-7.213,19.748
				c0.32,0.088,0.619,0.05,0.865-0.195c0.338-0.331,0.67-0.667,0.998-1.007C374.771,66.599,374.808,66.038,374.515,65.824
				L374.515,65.824z"/>
		</g>
	</g>
	<g>
		<g>
			<path d="M400.271,121.368c-0.586,0.473-1.243,0.813-1.969,1.021c-0.711-0.032-0.918,1.148-0.77,1.638
				c2.542,8.388,5.765,16.59,9.023,24.722c0.359,0.896,1.097,0,0.945-0.64c-1.055-4.465-2.452-8.82-4.004-13.135
				c-1.037-2.884-5.544-10.593-3.054-13.039C400.584,121.797,400.516,121.205,400.271,121.368L400.271,121.368z"/>
		</g>
	</g>
	<g>
		<g>
			<path d="M397.206,133.677c-0.438-0.193-1.149-0.838-1.09-0.037c-0.26,0.553-0.52,1.106-0.779,1.66
				c4.189-2.518,8.731-4.581,12.661-7.498c0.438-0.325,0.388-1.853-0.354-1.739c-4.856,0.748-9.295,3.333-13.244,6.15
				c-0.558,0.398-0.549,1.348-0.466,1.933c0.288,2.028,1.296,1.649,2.859,2.178C398.076,136.759,398.233,134.129,397.206,133.677
				L397.206,133.677z"/>
		</g>
	</g>
	<g>
		<g>
			<path d="M397.04,137.955c3.635-0.501,6.911-2.381,9.645-4.769c0.408-0.356,0.439-2.002-0.375-1.847
				c-3.349,0.637-6.382,2.426-9.63,3.44C395.533,135.136,395.722,138.137,397.04,137.955L397.04,137.955z"/>
		</g>
	</g>
	<g>
		<g>
			<path d="M399.571,142.387c2.738-2.634,6.276-4.691,9.618-6.468c0.688-0.365,0.551-2.104-0.379-1.837
				c-3.937,1.13-7.397,2.661-10.382,5.532C397.475,140.533,398.317,143.594,399.571,142.387L399.571,142.387z"/>
		</g>
	</g>
	<g>
		<g>
			<path d="M401.825,144.431c3.542,2.188,8.473-1.539,10.777-4.111c0.251-0.281,0.376-1.539-0.287-1.413
				c-3.316,0.632-6.212,3.276-9.734,2.506C401.126,141.094,400.795,143.794,401.825,144.431L401.825,144.431z"/>
		</g>
	</g>
	<g>
		<g>
			<path d="M403.806,151.446c-7.627-1.669-14.115,3.168-20.496,6.604c-8.167,4.396-15.992,9.403-23.721,14.52
				c-15.653,10.362-30.909,21.305-46.584,31.638c-31.736,20.921-64.619,40.384-95.049,63.208c-0.608,0.456-0.208,2.465,0.591,1.949
				c31.184-20.104,62.48-40.035,93.656-60.151c15.256-9.844,30.122-20.227,45.168-30.382c14.433-9.742,29.715-20.531,46.479-25.617
				C404.444,153.035,404.427,151.582,403.806,151.446L403.806,151.446z"/>
		</g>
	</g>
	<g>
		<g>
			<path d="M219.675,269.05c-3.908,6.991-7.029,18.439,4.679,18.458c0.774,0.001,0.671-1.559-0.041-1.68
				c-3.727-0.629-6.875-2.406-6.432-6.59c0.308-2.91,1.747-5.747,3.11-8.287C221.518,269.973,220.486,267.6,219.675,269.05
				L219.675,269.05z"/>
		</g>
	</g>
	<g>
		<g>
			<path d="M410.371,155.191c44.782,5.383,88.58,14.919,131.786,27.828c42.524,12.706,84.164,28.188,126.047,42.814
				c0.798,0.278,0.915-1.388,0.26-1.664c-41.664-17.549-84.094-33.171-127.455-46.016c-42.467-12.58-86.403-23.049-130.713-26.008
				C408.952,152.055,409.027,155.029,410.371,155.191L410.371,155.191z"/>
		</g>
	</g>
	<g>
		<g>
			<path d="M668.038,227.691c-0.385,7.023-10.775,10.703-15.901,13.687c-0.684,0.398-0.58,2.218,0.395,1.912
				c7.288-2.285,17.063-6.85,17.431-15.646C670.037,225.822,668.136,225.925,668.038,227.691L668.038,227.691z"/>
		</g>
	</g>
	<g>
		<g>
			<path d="M367.265,74.632c-0.103-0.032-0.206-0.063-0.31-0.091c-0.174-0.046-0.708-0.202-0.27-0.05
				c-0.344-0.119-0.783-0.06-1.033,0.232c-0.009,0.01-0.018,0.021-0.027,0.032c-0.808,0.943-0.938,2.717,0.088,3.587
				c0.419,0.355,0.976,0.342,1.377-0.034c0.496-0.464,0.618-1.165,0.631-1.81c0.007-0.341-0.067-0.786-0.215-1.099
				c-0.13,0.886-0.26,1.771-0.391,2.657c0.156-0.16-0.335,0.174-0.073,0.066c0.098-0.041,0.204-0.069,0.305-0.101
				c0.629-0.197,0.819-1.169,0.806-1.715C368.14,75.736,367.902,74.829,367.265,74.632L367.265,74.632z"/>
		</g>
	</g>
	<g>
		<g>
			<path d="M366.977,84.064c-0.167,0.005-0.333,0.011-0.5,0.016c-1.162,0.039-0.399,2.684,0.466,1.562
				c0.088-0.114,0.176-0.228,0.264-0.342c0.117-0.152,0.102-0.46-0.015-0.607c-0.093-0.118-0.187-0.235-0.28-0.353
				c-0.846-1.064-1.608,1.542-0.389,1.583c0.167,0.005,0.333,0.011,0.5,0.016C367.85,85.965,367.82,84.036,366.977,84.064
				L366.977,84.064z"/>
		</g>
	</g>
	<g>
		<g>
			<path d="M372.309,93.339c-0.132-0.021-0.265-0.042-0.397-0.063c-0.099-0.015-0.199-0.031-0.298-0.046
				c-0.047-0.007-0.094-0.015-0.141-0.022c-0.25-0.039,0.3,0.173,0.149,0.073c-0.24-0.16-0.581-0.245-0.801,0.02
				c-0.152,0.182-0.187,0.241-0.289,0.459c-0.222,0.475-0.089,1.251,0.314,1.594c0.453,0.385,0.851-0.039,1.041-0.445
				c0.001-0.003,0.003-0.006,0.004-0.009c-0.146,0.18-0.292,0.36-0.439,0.541c0.999-0.36,0.903-1.88-0.055-2.222
				c0.155,0.173,0.31,0.346,0.465,0.518c-0.001-0.003-0.003-0.006-0.004-0.009c-0.199-0.406-0.635-0.793-1.061-0.394
				c-0.396,0.371-0.469,1.134-0.236,1.607c0.044,0.09,0.08,0.186,0.146,0.262c0.169,0.196,0.49,0.487,0.78,0.292
				c0.157-0.106-0.125-0.007,0.041-0.033c0.121-0.019,0.242-0.038,0.363-0.057c0.156-0.024,0.312-0.049,0.467-0.074
				C373.261,95.188,373.183,93.475,372.309,93.339L372.309,93.339z"/>
		</g>
	</g>
	<g>
		<g>
			<path d="M377.143,103.694c0.231-0.104,0.463-0.194,0.668-0.343c0.188-0.136,0.166-0.578-0.018-0.708
				c-0.209-0.149-0.451-0.238-0.685-0.342C376.335,101.958,376.331,104.06,377.143,103.694L377.143,103.694z"/>
		</g>
	</g>
	<g>
		<g>
			<path d="M388.073,110.653c0.156-0.162,0.311-0.323,0.467-0.484c0.259-0.269,0.232-0.753-0.025-1.012
				c-0.164-0.165-0.327-0.329-0.491-0.493c-0.637-0.64-1.125,0.551-1.114,1.022C386.923,110.18,387.453,111.297,388.073,110.653
				L388.073,110.653z"/>
		</g>
	</g>
	<g>
		<g>
			<path d="M399.036,113.132c0.575-0.042,0.927-0.141,1.262-0.641c-0.112,0.104-0.224,0.209-0.335,0.313
				c0.401-0.163,0.776-0.352,1.158-0.556c0.405-0.217,0.361-0.962-0.029-1.167c-0.391-0.205-0.775-0.396-1.185-0.561
				c0.117,0.099,0.233,0.197,0.351,0.296c-0.346-0.495-0.722-0.572-1.293-0.613c-0.694-0.05-0.938,0.993-0.925,1.488
				C398.051,112.214,398.341,113.183,399.036,113.132L399.036,113.132z"/>
		</g>
	</g>
	<g>
		<g>
			<path d="M415.227,108.292c0.097-0.132,0.114-0.154,0.051-0.068c0.109-0.129,0.228-0.251,0.345-0.374
				c0.232-0.244,0.514-0.472,0.694-0.759c0.143-0.227,0.347-0.399,0.532-0.593c0.243-0.253,0.405-0.6,0.555-0.913
				c0.209-0.435,0.197-1.608-0.571-1.39c-0.977,0.277-1.992,0.468-2.868,1.025c-0.891,0.567-1.046,1.811-0.661,2.743
				C413.693,108.903,414.602,109.136,415.227,108.292L415.227,108.292z"/>
		</g>
	</g>
	<g>
		<g>
			<path d="M361.598,84.378c-3.002,10.557-1.576,20.878,7.274,28.053c8.754,7.098,21.884,9.159,32.813,8.665
				c0.694-0.032,0.626-1.444-0.037-1.523c-9.483-1.133-19.113-2.438-27.688-6.9c-10.676-5.554-14.038-15.705-10.891-27.049
				C363.374,84.525,362.055,82.773,361.598,84.378L361.598,84.378z"/>
		</g>
	</g>
	<path d="M290.342,93.049c-7.43,14.333-20.058,29.855-36.749,33.093c-19.368,3.757-30.603-15.337-32.392-31.786
		c-1.584-14.564,1.032-29.708,12.91-39.148c4.715-3.748,10.59-6.595,16.644-7.07c7.475-0.587,10.393,5.348,11.018,11.893
		c0.093,0.98,1.216,2.825,2.127,1.27c0.787-1.343,1.516-2.71,2.25-4.083c0.075-0.139,0.063-0.636-0.212-0.517
		c-0.624,0.268-1.242,0.538-1.857,0.817c-0.58-5.654-2.926-10.986-8.554-13.286c-6.118-2.5-13.503,0.449-18.858,3.427
		c-15.901,8.846-20.114,25.636-19.775,42.839c0.378,19.161,10.042,41.853,31.999,42.768c20.222,0.843,37.828-21.021,42.9-38.594
		C292.029,93.847,291.1,91.587,290.342,93.049z"/>
	<path d="M303,42.98v0.039V42.98z"/>
	<path d="M350.056,110.687c-2.195-0.835-5.229-0.352-7.531-0.38c-4.062-0.05-8.138,0.629-12.128,1.302
		c-7.243,1.221-14.391,2.936-21.754,2.815c-0.697-18.038-5.341-37.279-0.204-54.862c0.348-1.19-0.815-3.105-1.629-1.38
		c-3.767,7.993-3.235,18.175-3.015,26.779c0.273,10.701,1.527,21.373,1.489,32.082c-0.003,1.064,0.555,2.498,1.78,2.571
		c7.938,0.473,15.7-1.415,23.459-2.816c4.018-0.726,8.046-1.212,12.128-1.326c2.448-0.068,4.631,0.213,6.938-0.468
		c0.208-0.027,0.404-0.075,0.569-0.175C351.413,114.067,351.624,111.283,350.056,110.687z"/>
	<path d="M497.63,84.528c-3.865-5.916-11.109-8.655-17.259-11.441c-2.912-1.319-5.921-2.774-7.923-5.352
		c-3.07-3.954-0.172-10.245,1.976-13.859c5.822-9.795,15.723,0.761,19.913,6.19c1.128,1.461,1.992-1.136,1.326-2.133
		c-3.19-4.777-7.405-9.821-13.199-11.337c-5.292-1.384-9.349,3.163-11.301,7.522c-2.11,4.71-3.916,10.965-0.866,15.736
		c2.936,4.593,8.405,6.568,13.143,8.743c7.129,3.272,12.39,7.254,15.373,14.733c2.692,6.753,1.694,15.034-5.314,18.508
		c-5.724,2.837-12.776,1.468-18.085-1.526c-2.684-1.514-5.192-3.37-7.576-5.314c-1.201-0.979-2.353-2.044-3.368-3.217
		c-1.123-1.298-1.273-1.066-0.191-1.432c0.998-0.337,0.85-2.801-0.313-2.755c-3.989,0.156-3.568,4.222-1.889,6.803
		c3.07,4.718,8.632,8.28,13.348,11.13c11.408,6.894,26.217,1.153,27.542-12.455C503.606,96.487,501.177,89.958,497.63,84.528z"/>
	<path d="M555.615,105.985c-0.057-0.516-0.578-1.387-1.066-0.637c-0.883,1.355-4.578,2.281-6.059,2.799
		c-3.368,1.179-7.059,1.491-10.595,1.726c-5.475,0.365-10.792-0.481-16.167-0.734c0.045-0.132,0.086-0.27,0.118-0.417
		c0.535-2.438,0.463-4.684,0.083-7.14c-0.118-0.765-0.592-1.054-1.038-0.964c-0.409-2.689-0.847-5.374-1.264-8.063
		c1.358-0.123,2.716-0.306,4.074-0.511c1.867-0.281,3.711-0.681,5.541-1.143c2.07-0.522,2.647-1.647,4.143-2.967
		c0.531-0.469,0.466-1.988-0.413-2.028c-1.954-0.091-2.316-0.55-4.31-0.11c-1.505,0.333-2.985,0.838-4.469,1.254
		c-1.707,0.479-3.44,0.952-5.186,1.369c-0.188-1.323-0.367-2.647-0.528-3.974c-0.537-4.423-0.857-8.874-0.924-13.329
		c-0.047-3.167,0.683-6.417,0.479-9.567c2.98-1.623,6.023-3.125,9.143-4.496c5.346-2.348,12.056-3.683,16.346-7.784
		c0.737-0.705,0.621-2.598-0.56-2.753c-5.539-0.726-11.961,2.987-16.892,5.181c-4.045,1.799-7.912,3.882-11.621,6.246
		c-0.327-0.232-0.736-0.222-1.208,0.221c-1.021,0.957-1.993,1.878-3.12,2.708c-1.425,1.048-0.485,5.703,1.37,4.518
		c1.1-0.703,2.215-1.375,3.336-2.034c-0.347,1.762-0.356,3.666-0.459,5.3c-0.287,4.551,0.011,9.145,0.36,13.682
		c0.176,2.273,0.384,4.555,0.62,6.837c-0.463,0.083-0.926,0.175-1.39,0.244c-1.41,0.208-1.336,3.018,0.078,3.163
		c0.574,0.059,1.147,0.089,1.721,0.106c0.637,5.41,1.43,10.812,2.432,16.124c0.032,0.171,0.072,0.331,0.12,0.479
		c-0.87,0.69-0.708,2.813,0.089,3.395c5.729,4.183,16.346,3.276,22.929,2.664C546.798,114.84,556.443,113.483,555.615,105.985z"/>
	<path d="M613.227,53.544c-7.575-3.203-18.456-0.782-26.503,0.449c-0.431-0.562-1.193-0.646-1.582,0.246
		c-4.115,0.628-8.207,1.396-12.288,2.214c-2.023,0.406-4.029,0.871-6.033,1.362c-0.504,0.124-2.915,0.986-4.683,1.479
		c-0.011-1.454-1.001-3.196-2.06-1.625c-1.379,2.045-2.265,3.072-1.359,5.529c0.176,0.477,0.729,1.215,1.338,1.112
		c7.901-1.336,15.758-2.881,23.687-4.04c-1.649,8.021-2.626,16.126-3.062,24.334c-0.296,5.574-0.349,11.161-0.384,16.742
		c-0.031,4.959-0.581,10.321,0.54,15.175c0.401,1.739,1.973,1.578,2.349-0.058c0.986-4.291,0.452-8.969,0.388-13.348
		c-0.073-4.953-0.096-9.905-0.024-14.858c0.136-9.491,0.731-19.002,2.489-28.331c0.053-0.007,0.104-0.016,0.157-0.023
		c4.452-0.599,8.915-1.087,13.391-1.458c4.578-0.38,9.449-0.124,13.711-2.003C614.306,55.999,614.208,53.958,613.227,53.544z"/>
</g>
<g id="Layer_7">
</g>
<g id="Text" display="none">
	<text transform="matrix(0.9883 0 0 1 284.75 882)" display="inline"><tspan x="0" y="0" fill="#F2F2F2" font-family="'LeelawadeeUI-Semilight'" font-size="34.6795">revolutionizes </tspan><tspan x="0" y="41.615" fill="#F2F2F2" font-family="'LeelawadeeUI-Semilight'" font-size="34.6795">how we share with others.</tspan><tspan x="0" y="83.23" fill="#F2F2F2" font-family="'LeelawadeeUI-Semilight'" font-size="34.6795"> </tspan><tspan x="0" y="124.846" fill="#F2F2F2" font-family="'LeelawadeeUI-Semilight'" font-size="34.6795">We buy,</tspan><tspan x="0" y="166.461" fill="#F2F2F2" font-family="'LeelawadeeUI-Semilight'" font-size="34.6795">sell, </tspan><tspan x="0" y="208.077" fill="#F2F2F2" font-family="'LeelawadeeUI-Semilight'" font-size="34.6795">trade,</tspan><tspan x="0" y="249.692" fill="#F2F2F2" font-family="'LeelawadeeUI-Semilight'" font-size="34.6795">loan and borrow</tspan><tspan x="0" y="332.923" fill="#F2F2F2" font-family="'LeelawadeeUI-Semilight'" font-size="34.6795">our things</tspan><tspan x="0" y="374.538" fill="#F2F2F2" font-family="'LeelawadeeUI-Semilight'" font-size="34.6795">and things we want </tspan><tspan x="0" y="416.153" fill="#F2F2F2" font-family="'LeelawadeeUI-Semilight'" font-size="34.6795">with friends </tspan><tspan x="0" y="457.769" fill="#F2F2F2" font-family="'LeelawadeeUI-Semilight'" font-size="34.6795">family </tspan><tspan x="0" y="499.384" fill="#F2F2F2" font-family="'LeelawadeeUI-Semilight'" font-size="34.6795">neighbors </tspan><tspan x="0" y="541" fill="#F2F2F2" font-family="'LeelawadeeUI-Semilight'" font-size="34.6795">and people we don’t know</tspan><tspan x="0" y="690.121" fill="#F2F2F2" font-family="'LeelawadeeUI-Semilight'" font-size="34.6795">And we</tspan><tspan x="0" y="731.736" fill="#F2F2F2" font-family="'LeelawadeeUI-Semilight'" font-size="34.6795">as students </tspan><tspan x="0" y="773.352" fill="#F2F2F2" font-family="'LeelawadeeUI-Semilight'" font-size="34.6795">or friends </tspan><tspan x="0" y="814.967" fill="#F2F2F2" font-family="'LeelawadeeUI-Semilight'" font-size="34.6795">fashion-finders</tspan><tspan x="0" y="856.582" fill="#F2F2F2" font-family="'LeelawadeeUI-Semilight'" font-size="34.6795">or gamers</tspan><tspan x="0" y="939.813" fill="#F2F2F2" font-family="'LeelawadeeUI-Semilight'" font-size="34.6795">We help each other</tspan><tspan x="0" y="981.428" fill="#F2F2F2" font-family="'LeelawadeeUI-Semilight'" font-size="34.6795">we foster community</tspan><tspan x="0" y="1023.045" fill="#F2F2F2" font-family="'LeelawadeeUI-Semilight'" font-size="34.6795">we find uses </tspan><tspan x="0" y="1064.66" fill="#F2F2F2" font-family="'LeelawadeeUI-Semilight'" font-size="34.6795">for ourselves </tspan><tspan x="0" y="1106.275" fill="#F2F2F2" font-family="'LeelawadeeUI-Semilight'" font-size="34.6795">and our things...</tspan><tspan x="0" y="1189.506" fill="#F2F2F2" font-family="'LeelawadeeUI-Semilight'" font-size="34.6795">but not just by selling </tspan><tspan x="0" y="1231.121" fill="#F2F2F2" font-family="'LeelawadeeUI-Semilight'" font-size="34.6795">and buying </tspan><tspan x="0" y="1272.736" fill="#F2F2F2" font-family="'LeelawadeeUI-Semilight'" font-size="34.6795">and spending</tspan><tspan x="0" y="1355.967" fill="#F2F2F2" font-family="'LeelawadeeUI-Semilight'" font-size="34.6795">but by sharing</tspan><tspan x="0" y="1397.582" fill="#F2F2F2" font-family="'LeelawadeeUI-Semilight'" font-size="34.6795">with others.</tspan><tspan x="0" y="1480.813" fill="#F2F2F2" font-family="'LeelawadeeUI-Semilight'" font-size="34.6795">Open your Closet [btn]</tspan></text>
	<text transform="matrix(0.9883 0 0 1 283.6899 883.1104)" display="inline"><tspan x="0" y="0" fill="#333333" font-family="'LeelawadeeUI-Semilight'" font-size="34.6795">revolutionizes </tspan><tspan x="0" y="41.615" fill="#333333" font-family="'LeelawadeeUI-Semilight'" font-size="34.6795">how we share with others.</tspan><tspan x="0" y="83.23" fill="#333333" font-family="'LeelawadeeUI-Semilight'" font-size="34.6795"> </tspan><tspan x="0" y="124.846" fill="#333333" font-family="'LeelawadeeUI-Semilight'" font-size="34.6795">We buy,</tspan><tspan x="0" y="166.461" fill="#333333" font-family="'LeelawadeeUI-Semilight'" font-size="34.6795">sell, </tspan><tspan x="0" y="208.077" fill="#333333" font-family="'LeelawadeeUI-Semilight'" font-size="34.6795">trade,</tspan><tspan x="0" y="249.692" fill="#333333" font-family="'LeelawadeeUI-Semilight'" font-size="34.6795">loan and borrow</tspan><tspan x="0" y="332.923" fill="#333333" font-family="'LeelawadeeUI-Semilight'" font-size="34.6795">our things</tspan><tspan x="0" y="374.538" fill="#333333" font-family="'LeelawadeeUI-Semilight'" font-size="34.6795">and things we want </tspan><tspan x="0" y="416.153" fill="#333333" font-family="'LeelawadeeUI-Semilight'" font-size="34.6795">with friends </tspan><tspan x="0" y="457.769" fill="#333333" font-family="'LeelawadeeUI-Semilight'" font-size="34.6795">family </tspan><tspan x="0" y="499.384" fill="#333333" font-family="'LeelawadeeUI-Semilight'" font-size="34.6795">neighbors </tspan><tspan x="0" y="541" fill="#333333" font-family="'LeelawadeeUI-Semilight'" font-size="34.6795">and people we don’t know</tspan><tspan x="0" y="690.121" fill="#333333" font-family="'LeelawadeeUI-Semilight'" font-size="34.6795">And we</tspan><tspan x="0" y="731.736" fill="#333333" font-family="'LeelawadeeUI-Semilight'" font-size="34.6795">as students </tspan><tspan x="0" y="773.352" fill="#333333" font-family="'LeelawadeeUI-Semilight'" font-size="34.6795">or friends </tspan><tspan x="0" y="814.968" fill="#333333" font-family="'LeelawadeeUI-Semilight'" font-size="34.6795">fashion-finders</tspan><tspan x="0" y="856.583" fill="#333333" font-family="'LeelawadeeUI-Semilight'" font-size="34.6795">or gamers</tspan><tspan x="0" y="939.813" fill="#333333" font-family="'LeelawadeeUI-Semilight'" font-size="34.6795">We help each other</tspan><tspan x="0" y="981.429" fill="#333333" font-family="'LeelawadeeUI-Semilight'" font-size="34.6795">we foster community</tspan><tspan x="0" y="1023.044" fill="#333333" font-family="'LeelawadeeUI-Semilight'" font-size="34.6795">we find uses </tspan><tspan x="0" y="1064.659" fill="#333333" font-family="'LeelawadeeUI-Semilight'" font-size="34.6795">for ourselves </tspan><tspan x="0" y="1106.274" fill="#333333" font-family="'LeelawadeeUI-Semilight'" font-size="34.6795">and our things...</tspan><tspan x="0" y="1189.506" fill="#333333" font-family="'LeelawadeeUI-Semilight'" font-size="34.6795">but not just by selling </tspan><tspan x="0" y="1231.121" fill="#333333" font-family="'LeelawadeeUI-Semilight'" font-size="34.6795">and buying </tspan><tspan x="0" y="1272.736" fill="#333333" font-family="'LeelawadeeUI-Semilight'" font-size="34.6795">and spending</tspan><tspan x="0" y="1355.967" fill="#333333" font-family="'LeelawadeeUI-Semilight'" font-size="34.6795">but by sharing</tspan><tspan x="0" y="1397.582" fill="#333333" font-family="'LeelawadeeUI-Semilight'" font-size="34.6795">with others.</tspan><tspan x="0" y="1480.813" fill="#333333" font-family="'LeelawadeeUI-Semilight'" font-size="34.6795">Open your Closet [btn]</tspan></text>
	
		<text transform="matrix(0.9789 0 -0.1376 0.9905 613.4053 1486.7383)" display="inline" fill="#F2F2F2" font-family="'LeelawadeeUI-Semilight'" font-size="41.8203">every day.</text>
	
		<text transform="matrix(0.9789 0 -0.1376 0.9905 612.4541 1485.7744)" display="inline" fill="#333333" font-family="'LeelawadeeUI-Semilight'" font-size="41.8203">every day.</text>
	
		<text transform="matrix(0.9883 0 0 1 226.25 822.5)" display="inline" fill="#F2F2F2" font-family="'FZDX--GB1-4'" font-size="59.7257">Closet</text>
	
		<text transform="matrix(0.9883 0 0 1 228.1543 823.625)" display="inline" fill="#333333" font-family="'FZDX--GB1-4'" font-size="59.7257">Closet</text>
	<polygon display="inline" fill="#166FFF" points="197,1463 -177.086,1212.956 -48.914,915.043 	"/>
</g>
</svg>
